<?xml version="1.0" encoding="UTF-8"?>
<svg id="Camada_2" data-name="Camada 2" xmlns="http://www.w3.org/2000/svg" viewBox="0 0 1000.75 368.19">
  <g id="Camada_1-2" data-name="Camada 1">
    <g>
      <g>
        <path d="m144.52,330.15v-151.77h.21l73.16,103.89-4.39-.63,72.96-103.27h.21v151.77h-10.03v-128.14l.84,5.02-61.88,87.17h-.42l-62.3-87.17,1.67-4.6v127.73h-10.03Z"/>
        <path d="m326.8,218.31c0-1.95.76-3.59,2.3-4.91,1.53-1.32,3.2-1.99,5.02-1.99,1.95,0,3.62.66,5.02,1.99,1.39,1.33,2.09,2.96,2.09,4.91,0,2.09-.7,3.8-2.09,5.12-1.39,1.33-3.07,1.99-5.02,1.99-1.81,0-3.49-.7-5.02-2.09-1.54-1.39-2.3-3.06-2.3-5.02Zm2.09,30.1h9.83v81.74h-9.83v-81.74Z"/>
        <path d="m384.49,248.41l1.05,25.71-1.25-5.02c2.37-7.11,6.86-12.72,13.48-16.83,6.62-4.11,13.97-6.17,22.05-6.17,7.66,0,13.87,2.27,18.6,6.79,4.74,4.53,7.18,10.42,7.32,17.66v59.58h-10.03v-56.86c-.14-5.3-1.81-9.68-5.02-13.17-3.21-3.48-7.88-5.29-14.01-5.44-5.43,0-10.52,1.33-15.26,3.97-4.74,2.65-8.54,6.34-11.39,11.08-2.86,4.74-4.29,10.24-4.29,16.52v43.9h-9.83v-81.74h8.57Z"/>
        <path d="m516.4,331.82c-7.67,0-14.63-1.85-20.9-5.54-6.27-3.69-11.26-8.81-14.95-15.36-3.69-6.55-5.54-13.93-5.54-22.16,0-8.78,1.88-16.37,5.64-22.79,3.76-6.41,8.88-11.36,15.36-14.84,6.48-3.48,13.62-5.23,21.43-5.23s15.22,2.02,22.26,6.06c7.04,4.04,12.16,9.34,15.36,15.89l-1.67,4.6v-101.18h9.82v158.87h-10.03v-25.08l2.09,4.6c-3.49,6.55-8.71,11.88-15.68,15.99-6.97,4.11-14.7,6.17-23.2,6.17Zm2.51-8.57c6.27,0,11.92-1.36,16.93-4.08,5.02-2.72,9.06-6.41,12.12-11.08,3.06-4.67,4.81-9.93,5.23-15.78v-10.45c-.98-5.3-3.14-10.03-6.48-14.21-3.34-4.18-7.39-7.49-12.12-9.93-4.74-2.44-9.97-3.66-15.68-3.66-6.27,0-11.99,1.46-17.14,4.39-5.16,2.93-9.27,6.97-12.33,12.12-3.07,5.16-4.6,11.15-4.6,17.98,0,6.41,1.53,12.23,4.6,17.46,3.06,5.23,7.21,9.41,12.44,12.54,5.23,3.14,10.9,4.7,17.04,4.7Z"/>
        <path d="m604.61,251.13l.84,25.5-.63-2.93c2.23-7.53,6.58-13.41,13.07-17.66,6.48-4.25,13.69-6.38,21.64-6.38,7.38,0,13.27,2.19,17.66,6.58,4.39,4.39,6.65,10,6.79,16.83v57.07h-4.18v-56.65c-.14-5.57-1.99-10.28-5.54-14.11-3.55-3.83-8.61-5.89-15.16-6.17-5.85,0-11.32,1.29-16.41,3.87-5.09,2.58-9.2,6.2-12.33,10.87-3.14,4.67-4.7,10.14-4.7,16.41v45.78h-4.18v-79.02h3.14Z"/>
        <path d="m700.77,226.25c0-1.25.45-2.33,1.36-3.24s2.05-1.36,3.45-1.36c1.25,0,2.33.45,3.24,1.36.9.91,1.36,1.99,1.36,3.24s-.45,2.34-1.36,3.24-1.99,1.36-3.24,1.36c-1.39,0-2.54-.45-3.45-1.36-.91-.9-1.36-1.99-1.36-3.24Zm2.51,24.88h4.18v79.02h-4.18v-79.02Z"/>
        <path d="m779.79,368.19c-3.49,0-7.07-.42-10.77-1.25-3.69-.84-7.6-2.4-11.71-4.7-4.11-2.3-8.47-5.75-13.07-10.35l2.3-2.72c6.83,6.69,12.96,10.9,18.4,12.65,5.43,1.74,10.31,2.61,14.63,2.61,9.62,0,17.07-1.5,22.37-4.49,5.29-3,9.02-6.97,11.18-11.91,2.16-4.95,3.38-10.42,3.66-16.41l.21-28.64,1.25,1.26c-2.93,8.08-7.98,14.63-15.16,19.65-7.18,5.02-15.16,7.53-23.94,7.53-7.53,0-14.36-1.81-20.49-5.43-6.13-3.62-11.05-8.53-14.74-14.74-3.69-6.2-5.54-13.13-5.54-20.8,0-8.08,1.88-15.22,5.64-21.43,3.76-6.2,8.74-11.01,14.95-14.42,6.2-3.41,13.07-5.12,20.59-5.12,8.36,0,15.96,2.33,22.79,7,6.83,4.67,11.78,10.63,14.84,17.87l-.63,2.3,1.25-25.5h3.14v80.69c0,6.13-1.19,11.95-3.55,17.45-2.37,5.5-6.55,10.03-12.54,13.59-5.99,3.55-14.36,5.33-25.09,5.33Zm-37.21-77.76c0,6.97,1.64,13.27,4.91,18.92,3.27,5.64,7.73,10.14,13.38,13.48,5.64,3.35,11.88,5.02,18.71,5.02s13.06-1.64,18.71-4.91c5.64-3.27,10.14-7.56,13.48-12.86,3.35-5.3,5.09-11.01,5.23-17.14v-8.99c-1.12-5.85-3.45-11.11-7-15.78-3.55-4.67-7.94-8.36-13.17-11.08s-10.97-4.08-17.25-4.08c-6.83,0-13.07,1.57-18.71,4.7-5.64,3.14-10.11,7.53-13.38,13.17-3.28,5.64-4.91,12.16-4.91,19.54Z"/>
        <path d="m860.27,330.15v-157.2h3.97v100.34l-.21-2.72c2.51-5.85,6.86-10.8,13.07-14.84,6.2-4.04,13.27-6.06,21.22-6.06,7.38,0,13.27,2.19,17.66,6.58,4.39,4.39,6.65,10,6.79,16.83v57.07h-4.18v-56.65c-.14-5.57-1.99-10.28-5.54-14.11-3.55-3.83-8.61-5.89-15.16-6.17-5.85,0-11.32,1.36-16.41,4.08-5.09,2.72-9.2,6.45-12.33,11.18-3.14,4.74-4.7,10.03-4.7,15.89v45.78h-4.18Z"/>
        <path d="m970.23,216.64h4.18v36.16h26.34v3.55h-26.34v73.79h-4.18v-73.79h-18.4v-3.55h18.4v-36.16Z"/>
      </g>
      <path d="m178.38,332.31c-89.45,0-161.97-72.52-161.97-161.97S88.92,8.37,178.38,8.37c53.8,0,101.46,26.23,130.91,66.6C278.98,29.76,227.42,0,168.9,0,75.62,0,0,75.62,0,168.9s75.62,168.9,168.9,168.9c40.08,0,76.9-13.97,105.86-37.3-26.93,19.98-60.28,31.8-96.39,31.8Z"/>
    </g>
  </g>
</svg>