<?xml version="1.0" encoding="UTF-8"?>
<svg id="Camada_2" data-name="Camada 2" xmlns="http://www.w3.org/2000/svg" viewBox="0 0 720.87 646.3" fill="#ffffff">
  <g id="Camada_1-2" data-name="Camada 1">
    <g>
      <path d="m0,614.27v-127.77h.18l61.6,87.47-3.7-.53,61.42-86.94h.18v127.77h-8.45v-107.89l.7,4.22-52.09,73.39h-.35L7.04,510.6l1.41-3.87v107.53H0Z"/>
      <path d="m153.47,520.11c0-1.64.64-3.02,1.94-4.14,1.29-1.11,2.7-1.67,4.22-1.67,1.64,0,3.05.56,4.22,1.67,1.17,1.12,1.76,2.49,1.76,4.14,0,1.76-.59,3.2-1.76,4.31-1.17,1.12-2.58,1.67-4.22,1.67-1.53,0-2.93-.59-4.22-1.76-1.29-1.17-1.94-2.58-1.94-4.22Zm1.76,25.34h8.27v68.81h-8.27v-68.81Z"/>
      <path d="m202.04,545.45l.88,21.65-1.06-4.22c1.99-5.98,5.78-10.71,11.35-14.17,5.57-3.46,11.76-5.19,18.57-5.19,6.45,0,11.67,1.91,15.66,5.72,3.99,3.81,6.04,8.77,6.16,14.87v50.16h-8.45v-47.87c-.12-4.46-1.53-8.15-4.22-11.09-2.7-2.93-6.63-4.46-11.79-4.58-4.58,0-8.86,1.12-12.85,3.34-3.99,2.23-7.19,5.34-9.59,9.33-2.41,3.99-3.61,8.62-3.61,13.9v36.96h-8.27v-68.81h7.22Z"/>
      <path d="m313.09,615.67c-6.45,0-12.32-1.55-17.6-4.66-5.28-3.11-9.48-7.42-12.58-12.94-3.11-5.51-4.66-11.73-4.66-18.66,0-7.39,1.58-13.79,4.75-19.18,3.17-5.4,7.48-9.56,12.94-12.5,5.46-2.93,11.47-4.4,18.04-4.4s12.82,1.7,18.74,5.1c5.92,3.4,10.24,7.86,12.94,13.38l-1.41,3.87v-85.18h8.27v133.76h-8.45v-21.12l1.76,3.87c-2.93,5.52-7.33,10-13.2,13.46-5.87,3.46-12.38,5.19-19.54,5.19Zm2.11-7.22c5.28,0,10.03-1.14,14.26-3.43,4.22-2.29,7.63-5.39,10.21-9.33,2.58-3.93,4.05-8.36,4.4-13.29v-8.8c-.82-4.46-2.64-8.45-5.46-11.97-2.82-3.52-6.22-6.31-10.21-8.36-3.99-2.05-8.39-3.08-13.2-3.08-5.28,0-10.09,1.23-14.43,3.7-4.34,2.46-7.8,5.87-10.38,10.21-2.58,4.34-3.87,9.39-3.87,15.14,0,5.4,1.29,10.3,3.87,14.7,2.58,4.4,6.07,7.92,10.47,10.56,4.4,2.64,9.18,3.96,14.34,3.96Z"/>
      <path d="m387.36,547.74l.7,21.47-.53-2.46c1.88-6.34,5.54-11.29,11-14.87,5.46-3.58,11.53-5.37,18.22-5.37,6.22,0,11.18,1.85,14.87,5.54s5.6,8.42,5.72,14.17v48.05h-3.52v-47.7c-.12-4.69-1.67-8.65-4.66-11.88-2.99-3.23-7.25-4.96-12.76-5.19-4.93,0-9.53,1.09-13.82,3.26-4.28,2.17-7.74,5.22-10.38,9.15-2.64,3.93-3.96,8.54-3.96,13.82v38.54h-3.52v-66.53h2.64Z"/>
      <path d="m468.32,526.8c0-1.06.38-1.96,1.14-2.73s1.73-1.14,2.9-1.14c1.06,0,1.96.38,2.73,1.14.76.76,1.14,1.67,1.14,2.73s-.38,1.97-1.14,2.73-1.67,1.14-2.73,1.14c-1.17,0-2.14-.38-2.9-1.14-.76-.76-1.14-1.67-1.14-2.73Zm2.11,20.94h3.52v66.53h-3.52v-66.53Z"/>
      <path d="m534.85,646.3c-2.93,0-5.96-.35-9.06-1.06-3.11-.7-6.4-2.02-9.86-3.96-3.46-1.94-7.13-4.84-11-8.71l1.94-2.29c5.75,5.63,10.91,9.18,15.49,10.65,4.58,1.47,8.68,2.2,12.32,2.2,8.1,0,14.37-1.26,18.83-3.78,4.46-2.52,7.6-5.87,9.42-10.03,1.82-4.17,2.84-8.77,3.08-13.82l.18-24.11,1.06,1.06c-2.46,6.81-6.72,12.32-12.76,16.54-6.04,4.22-12.76,6.34-20.15,6.34-6.34,0-12.09-1.52-17.25-4.58-5.16-3.05-9.3-7.19-12.41-12.41-3.11-5.22-4.66-11.06-4.66-17.51,0-6.8,1.58-12.82,4.75-18.04,3.17-5.22,7.36-9.27,12.58-12.14,5.22-2.87,11-4.31,17.34-4.31,7.04,0,13.43,1.97,19.18,5.9,5.75,3.93,9.91,8.95,12.5,15.05l-.53,1.94,1.06-21.47h2.64v67.93c0,5.16-1,10.06-2.99,14.7-2,4.63-5.52,8.45-10.56,11.44-5.05,2.99-12.09,4.49-21.12,4.49Zm-31.33-65.47c0,5.87,1.38,11.18,4.14,15.93,2.76,4.75,6.51,8.54,11.26,11.35,4.75,2.82,10,4.22,15.75,4.22s11-1.38,15.75-4.14c4.75-2.75,8.54-6.36,11.35-10.82,2.82-4.46,4.28-9.27,4.4-14.43v-7.57c-.94-4.93-2.9-9.36-5.9-13.29-2.99-3.93-6.69-7.04-11.09-9.33s-9.24-3.43-14.52-3.43c-5.75,0-11,1.32-15.75,3.96-4.75,2.64-8.51,6.34-11.26,11.09-2.76,4.75-4.14,10.24-4.14,16.46Z"/>
      <path d="m602.6,614.27v-132.35h3.34v84.48l-.18-2.29c2.11-4.93,5.78-9.09,11-12.5,5.22-3.4,11.18-5.1,17.86-5.1,6.22,0,11.18,1.85,14.87,5.54s5.6,8.42,5.72,14.17v48.05h-3.52v-47.7c-.12-4.69-1.67-8.65-4.66-11.88-2.99-3.23-7.25-4.96-12.76-5.19-4.93,0-9.53,1.14-13.82,3.43-4.28,2.29-7.74,5.43-10.38,9.42-2.64,3.99-3.96,8.45-3.96,13.38v38.54h-3.52Z"/>
      <path d="m695.18,518.7h3.52v30.45h22.18v2.99h-22.18v62.13h-3.52v-62.13h-15.49v-2.99h15.49v-30.45Z"/>
    </g>
    <g>
      <path d="m381.94,413.14c-111.21,0-201.37-90.16-201.37-201.37S270.73,10.4,381.94,10.4c66.88,0,126.14,32.62,162.76,82.8C507.02,37,442.92,0,370.16,0c-115.97,0-209.99,94.02-209.99,209.99s94.02,209.99,209.99,209.99c49.83,0,95.6-17.37,131.61-46.37-33.49,24.84-74.94,39.53-119.83,39.53Z"/>
      <path d="m340.03,412.25v-190.83h.26l91.03,129.27-5.46-.78,90.77-128.49h.26v188.83h-12.48v-159.44l1.04,6.24-76.99,108.46h-.52l-77.51-108.46,2.08-5.72v160.92h-12.48Z"/>
    </g>
  </g>
</svg>