<?xml version="1.0" encoding="UTF-8"?>
<svg id="Camada_2" data-name="Camada 2" xmlns="http://www.w3.org/2000/svg" viewBox="0 0 384.53 419.98" fill="#ffffff">
  <g id="Camada_1-2" data-name="Camada 1">
    <g>
      <path d="m221.77,413.14c-111.21,0-201.37-90.16-201.37-201.37S110.56,10.4,221.77,10.4c66.88,0,126.14,32.62,162.76,82.8C346.85,37,282.74,0,209.99,0,94.02,0,0,94.02,0,209.99s94.02,209.99,209.99,209.99c49.83,0,95.6-17.37,131.61-46.37-33.49,24.84-74.94,39.53-119.83,39.53Z"/>
      <path d="m179.86,412.25v-190.83h.26l91.03,129.27-5.46-.78,90.77-128.49h.26v188.83h-12.48v-159.44l1.04,6.24-76.99,108.46h-.52l-77.51-108.46,2.08-5.72v160.92h-12.48Z"/>
    </g>
  </g>
</svg>