<?xml version="1.0" encoding="UTF-8"?><svg xmlns="http://www.w3.org/2000/svg" viewBox="0 0 461.72 464.94"><defs><style>.d,.e{fill:#fff;}.f{fill:none;}.e{stroke:#fff;stroke-miterlimit:10;}</style></defs><g id="a"/><g id="b"><g id="c"><g><circle class="f" cx="223.18" cy="177.1" r="177.1"/><path class="d" d="M350.41,124.92v174.89l-4.29,4.13V136.69l-68.44,152.77h-2.58l-68.44-152.22v217.47h-4.29V124.92h3.65l70.37,157.15,70.37-157.15h3.65Z"/><path class="d" d="M65.96,196.47C58.8,101.37,130.09,18.48,225.18,11.32c50.11-3.77,96.83,14.25,130.86,46.04C320.89,21.34,270.66,.53,216.54,4.61,119.42,11.92,46.62,96.57,53.93,193.69c7.31,97.12,91.97,169.92,189.08,162.61,1.35-.1,2.7-.22,4.04-.36-93.39,4.87-174.04-65.73-181.1-159.48Z"/></g><g><path class="e" d="M53.65,410.52v53.92h-1.54v-50.61l-24.57,42.98h-.92L2.04,413.99v50.45H.5v-53.92H1.81l25.27,44.21,25.27-44.21h1.31Z"/><path class="e" d="M74.15,410.52h1.54v53.92h-1.54v-53.92Z"/><path class="e" d="M138.55,410.52v53.92h-1.31l-39.52-51.07v51.07h-1.54v-53.92h1.31l39.52,51.07v-51.07h1.54Z"/><path class="e" d="M159.04,410.52h20.41c17.02,0,28.42,11.4,28.42,26.96s-11.4,26.96-28.42,26.96h-20.41v-53.92Zm20.26,52.46c16.48,0,27.04-10.78,27.04-25.5s-10.55-25.5-27.04-25.5h-18.72v50.99h18.72Z"/><path class="d" d="M265.04,410.52v53.92h-1.31l-39.52-51.07v51.07h-1.54v-53.92h1.31l39.52,51.07v-51.07h1.54Z"/><path class="d" d="M285.54,410.52h1.54v53.92h-1.54v-53.92Z"/><path class="d" d="M346.86,438.02h1.46v19.72c-4.62,4.62-11.25,6.93-18.56,6.93-16.02,0-27.88-11.63-27.88-27.19s11.86-27.19,27.88-27.19c7.32,0,13.94,2.24,18.56,6.86l-.92,1.08c-4.93-4.7-10.86-6.47-17.64-6.47-15.1,0-26.34,11.17-26.34,25.73s11.25,25.73,26.34,25.73c6.55,0,12.48-1.69,17.1-6.08v-19.1Z"/><path class="d" d="M409.56,410.52v53.92h-1.54v-26.65h-39.28v26.65h-1.54v-53.92h1.54v25.8h39.28v-25.8h1.54Z"/><path class="d" d="M440.15,411.99h-20.03v-1.46h41.6v1.46h-20.03v52.46h-1.54v-52.46Z"/></g></g></g></svg>