<?xml version="1.0" encoding="UTF-8"?><svg xmlns="http://www.w3.org/2000/svg" viewBox="0 0 354.19 356.8"><defs><style>.d{fill:#fff;}.e{fill:none;}</style></defs><g id="a"/><g id="b"><g id="c"><g><circle class="e" cx="177.1" cy="177.1" r="177.1"/><path class="d" d="M304.34,124.92v174.89l-4.29,4.13V136.69l-68.44,152.77h-2.58l-68.44-152.22v217.47h-4.29V124.92h3.65l70.37,157.15,70.37-157.15h3.65Z"/><path class="d" d="M19.88,196.47C12.72,101.37,84.01,18.48,179.1,11.32c50.11-3.77,96.83,14.25,130.86,46.04C274.82,21.34,224.58,.53,170.46,4.61,73.34,11.92,.54,96.57,7.85,193.69c7.31,97.12,91.97,169.92,189.08,162.61,1.35-.1,2.7-.22,4.04-.36-93.39,4.87-174.04-65.73-181.1-159.48Z"/></g></g></g></svg>