<svg width="32" height="32" viewBox="0 0 32 32" fill="none" xmlns="http://www.w3.org/2000/svg">
<g clip-path="url(#clip0_178_839)">
<path d="M16.048 7.11867C11.2013 7.11867 7.26 11.06 7.25733 15.904C7.256 17.8813 7.836 19.3627 8.80933 20.912L7.92133 24.1547L11.2467 23.2827C12.736 24.1667 14.1587 24.6973 16.04 24.6973C20.8827 24.6973 24.828 20.756 24.8293 15.9107C24.8333 11.056 20.9067 7.12 16.048 7.11867ZM21.216 19.6827C20.996 20.3 19.94 20.8627 19.4333 20.9387C18.9787 21.0067 18.4027 21.0347 17.7693 20.8347C17.3853 20.7133 16.8933 20.5507 16.264 20.2787C13.6147 19.1347 11.884 16.4667 11.752 16.2907C11.62 16.1147 10.6733 14.8587 10.6733 13.5587C10.6733 12.2587 11.356 11.62 11.5973 11.3547C11.84 11.088 12.1253 11.0213 12.3013 11.0213L12.808 11.0307C12.9707 11.0387 13.188 10.9693 13.4027 11.484C13.6227 12.0133 14.1507 13.3133 14.2173 13.4453C14.2827 13.5773 14.328 13.732 14.2387 13.908C14.1507 14.084 14.1067 14.1947 13.9747 14.348L13.5787 14.8107C13.4467 14.9427 13.3093 15.0853 13.4627 15.3493C13.6173 15.6133 14.1467 16.4787 14.932 17.1787C15.9413 18.0787 16.792 18.3573 17.056 18.4893C17.32 18.6213 17.4747 18.6 17.628 18.4227C17.7827 18.2467 18.288 17.652 18.464 17.3867C18.64 17.1213 18.816 17.1667 19.0587 17.2547C19.3013 17.3427 20.6 17.9813 20.864 18.1147C21.128 18.2467 21.304 18.3133 21.3707 18.4227C21.436 18.536 21.436 19.0653 21.216 19.6827ZM25.3333 0H6.66667C2.98533 0 0 2.98533 0 6.66667V25.3333C0 29.0147 2.98533 32 6.66667 32H25.3333C29.016 32 32 29.0147 32 25.3333V6.66667C32 2.98533 29.016 0 25.3333 0ZM16.044 26.4827C14.2747 26.4827 12.532 26.0387 10.988 25.196L5.384 26.6667L6.884 21.1893C5.95867 19.5867 5.472 17.768 5.47333 15.904C5.476 10.0747 10.2173 5.33333 16.044 5.33333C18.872 5.33467 21.5267 6.436 23.5227 8.43333C25.5187 10.4307 26.6173 13.088 26.616 15.912C26.6133 21.7413 21.8707 26.4827 16.044 26.4827Z" fill="#9CCCF2"/>
</g>
<defs>
<clipPath id="clip0_178_839">
<rect width="32" height="32" fill="white"/>
</clipPath>
</defs>
</svg>
